<svg preserveAspectRatio="none" width="100%" height="100%" overflow="visible" style="display: block;" viewBox="0 0 141.195 46.5477" fill="none" xmlns="http://www.w3.org/2000/svg">
<g id="Frame" clip-path="url(#clip0_0_11)">
<path id="Vector" d="M12.4126 37.2387H9.30937C8.45245 37.2387 7.75778 37.9334 7.75778 38.7903V44.9967C7.75778 45.8536 8.45245 46.5483 9.30937 46.5483H12.4126C13.2695 46.5483 13.9641 45.8536 13.9641 44.9967V38.7903C13.9641 37.9334 13.2695 37.2387 12.4126 37.2387Z" fill="var(--fill-0, #A78BFA)" fill-opacity="0.6"/>
<path id="Vector_2" d="M23.2728 29.4812H20.1696C19.3127 29.4812 18.618 30.1758 18.618 31.0328V44.9971C18.618 45.854 19.3127 46.5487 20.1696 46.5487H23.2728C24.1297 46.5487 24.8244 45.854 24.8244 44.9971V31.0328C24.8244 30.1758 24.1297 29.4812 23.2728 29.4812Z" fill="var(--fill-0, #A78BFA)" fill-opacity="0.683333"/>
<path id="Vector_3" d="M34.1346 20.1707H31.0314C30.1745 20.1707 29.4798 20.8653 29.4798 21.7222V44.9961C29.4798 45.853 30.1745 46.5477 31.0314 46.5477H34.1346C34.9915 46.5477 35.6862 45.853 35.6862 44.9961V21.7222C35.6862 20.8653 34.9915 20.1707 34.1346 20.1707Z" fill="var(--fill-0, #A78BFA)" fill-opacity="0.783333"/>
<path id="Vector_4" d="M44.9956 31.0309H41.8924C41.0355 31.0309 40.3408 31.7256 40.3408 32.5825V44.9952C40.3408 45.8522 41.0355 46.5468 41.8924 46.5468H44.9956C45.8525 46.5468 46.5471 45.8522 46.5471 44.9952V32.5825C46.5471 31.7256 45.8525 31.0309 44.9956 31.0309Z" fill="var(--fill-0, #A78BFA)" fill-opacity="0.666667"/>
<path id="Vector_5" d="M55.8574 13.9623H52.7542C51.8973 13.9623 51.2026 14.657 51.2026 15.5139V44.9942C51.2026 45.8511 51.8973 46.5457 52.7542 46.5457H55.8574C56.7143 46.5457 57.409 45.8511 57.409 44.9942V15.5139C57.409 14.657 56.7143 13.9623 55.8574 13.9623Z" fill="var(--fill-0, #A78BFA)" fill-opacity="0.85"/>
<path id="Vector_6" d="M66.7176 23.2729H63.6144C62.7575 23.2729 62.0628 23.9675 62.0628 24.8244V44.9951C62.0628 45.852 62.7575 46.5467 63.6144 46.5467H66.7176C67.5745 46.5467 68.2692 45.852 68.2692 44.9951V24.8244C68.2692 23.9675 67.5745 23.2729 66.7176 23.2729Z" fill="var(--fill-0, #A78BFA)" fill-opacity="0.75"/>
<path id="Vector_7" d="M77.5794 10.8616H74.4762C73.6193 10.8616 72.9246 11.5563 72.9246 12.4132V44.9966C72.9246 45.8535 73.6193 46.5482 74.4762 46.5482H77.5794C78.4363 46.5482 79.131 45.8535 79.131 44.9966V12.4132C79.131 11.5563 78.4363 10.8616 77.5794 10.8616Z" fill="var(--fill-0, #A78BFA)" fill-opacity="0.883333"/>
<path id="Vector_8" d="M88.4404 24.8241H85.3372C84.4803 24.8241 83.7856 25.5187 83.7856 26.3757V44.9948C83.7856 45.8517 84.4803 46.5463 85.3372 46.5463H88.4404C89.2973 46.5463 89.992 45.8517 89.992 44.9948V26.3757C89.992 25.5187 89.2973 24.8241 88.4404 24.8241Z" fill="var(--fill-0, #A78BFA)" fill-opacity="0.733333"/>
<path id="Vector_9" d="M99.3014 4.65477H96.1982C95.3413 4.65477 94.6466 5.34944 94.6466 6.20636V44.9961C94.6466 45.8531 95.3413 46.5477 96.1982 46.5477H99.3014C100.158 46.5477 100.853 45.8531 100.853 44.9961V6.20636C100.853 5.34944 100.158 4.65477 99.3014 4.65477Z" fill="var(--fill-0, #A78BFA)" fill-opacity="0.95"/>
<path id="Vector_10" d="M110.162 29.4812H107.059C106.202 29.4812 105.508 30.1758 105.508 31.0328V44.9971C105.508 45.854 106.202 46.5487 107.059 46.5487H110.162C111.019 46.5487 111.714 45.854 111.714 44.9971V31.0328C111.714 30.1758 111.019 29.4812 110.162 29.4812Z" fill="var(--fill-0, #A78BFA)" fill-opacity="0.683333"/>
<path id="Vector_11" d="M121.023 17.0665H117.92C117.063 17.0665 116.369 17.7612 116.369 18.6181V44.9951C116.369 45.8521 117.063 46.5467 117.92 46.5467H121.023C121.88 46.5467 122.575 45.8521 122.575 44.9951V18.6181C122.575 17.7612 121.88 17.0665 121.023 17.0665Z" fill="var(--fill-0, #A78BFA)" fill-opacity="0.816667"/>
<path id="Vector_12" d="M131.885 7.75573H128.782C127.925 7.75573 127.23 8.45041 127.23 9.30733V44.9939C127.23 45.8508 127.925 46.5455 128.782 46.5455H131.885C132.742 46.5455 133.437 45.8508 133.437 44.9939V9.30733C133.437 8.45041 132.742 7.75573 131.885 7.75573Z" fill="var(--fill-0, #A78BFA)" fill-opacity="0.916667"/>
</g>
<defs>
<clipPath id="clip0_0_11">
<rect width="141.195" height="46.5477" fill="white"/>
</clipPath>
</defs>
</svg>
