<svg preserveAspectRatio="none" width="100%" height="100%" overflow="visible" style="display: block;" viewBox="0 0 532 339.889" fill="none" xmlns="http://www.w3.org/2000/svg">
<g id="Connector 2">
<path id="Vector" d="M214.278 177.333C277.084 177.333 277.084 155.167 339.889 155.167" stroke="var(--stroke-0, #A78BFA)" stroke-width="1.03444" stroke-dasharray="2.22 2.22"/>
<path id="Vector_2" d="M214.278 179.551C215.502 179.551 216.495 178.558 216.495 177.334C216.495 176.11 215.502 175.117 214.278 175.117C213.054 175.117 212.061 176.11 212.061 177.334C212.061 178.558 213.054 179.551 214.278 179.551Z" fill="var(--fill-0, #A78BFA)"/>
<path id="Vector_3" d="M339.889 157.383C341.113 157.383 342.106 156.391 342.106 155.167C342.106 153.942 341.113 152.95 339.889 152.95C338.665 152.95 337.672 153.942 337.672 155.167C337.672 156.391 338.665 157.383 339.889 157.383Z" fill="var(--fill-0, #A78BFA)"/>
</g>
</svg>
