<svg preserveAspectRatio="none" width="100%" height="100%" overflow="visible" style="display: block;" viewBox="0 0 29.332 18.6661" fill="none" xmlns="http://www.w3.org/2000/svg">
<g id="Group">
<path id="Vector" d="M9 1.00005H5C3.93913 1.00005 2.92172 1.42148 2.17157 2.17163C1.42143 2.92177 1 3.93919 1 5.00005V13.6661C1 14.7269 1.42143 15.7443 2.17157 16.4945C2.92172 17.2446 3.93913 17.6661 5 17.6661H5.667M19.666 1.00005H20.332C21.3929 1.00005 22.4103 1.42148 23.1604 2.17163C23.9106 2.92177 24.332 3.93919 24.332 5.00005M24.332 5.00005V13.6661M24.332 5.00005H26.332C26.8624 5.00005 27.3711 5.21077 27.7462 5.58584C28.1213 5.96091 28.332 6.46962 28.332 7.00005V11.6661C28.332 12.1965 28.1213 12.7052 27.7462 13.0803C27.3711 13.4553 26.8624 13.6661 26.332 13.6661H24.332M24.332 13.6661C24.332 14.7269 23.9106 15.7443 23.1604 16.4945C22.4103 17.2446 21.3929 17.6661 20.332 17.6661H16.332M15 1.00005L8.667 9.33305H16.667L10.333 17.6661" stroke="var(--stroke-0, #21200B)" stroke-width="2" stroke-linecap="round" stroke-linejoin="round"/>
</g>
</svg>
