<svg preserveAspectRatio="none" width="100%" height="100%" overflow="visible" style="display: block;" viewBox="0 0 32 32" fill="none" xmlns="http://www.w3.org/2000/svg">
<g id="6747aab4e9e7c5eb3faf7a8a_globe.svg">
<path id="Vector" d="M28.8 16C28.8 8.94158 23.0594 3.2 16 3.2C14.8131 3.2 13.6679 3.37455 12.575 3.67903L12.5498 3.66255L12.5333 3.6897C7.15733 5.20727 3.20097 10.144 3.20097 16C3.20097 23.0584 8.94254 28.8 16.001 28.8C17.1898 28.8 18.3341 28.6255 19.4259 28.321L19.4512 28.3384C19.4572 28.3298 19.4628 28.3207 19.4676 28.3113C24.8436 26.7927 28.8 21.8541 28.8 16ZM4.47515 16.6225H9.088C9.13358 17.9966 9.28776 19.3493 9.56606 20.6613H5.43418C4.87067 19.3848 4.54628 18.0161 4.47515 16.6225ZM27.5268 15.3784H22.9139C22.8728 14.0201 22.7125 12.668 22.4349 11.3377H26.5658C27.1296 12.6148 27.456 13.9842 27.5268 15.3784ZM21.6718 15.3784H16.6216V11.3377H21.1665C21.4596 12.6661 21.6287 14.0188 21.6718 15.3784ZM16.6225 10.0965V4.47418C17.2257 4.50618 17.8182 4.57309 18.3942 4.6943C19.4716 6.36544 20.2982 8.18552 20.8475 10.0965H16.6225ZM15.3794 10.0965H11.0594C11.5641 8.2198 12.3323 6.42415 13.3411 4.76315C14.0105 4.60614 14.6927 4.50943 15.3794 4.47418V10.0965ZM15.3794 11.3377V15.3794H10.3156C10.338 14.0218 10.4857 12.6691 10.7568 11.3387L15.3794 11.3377ZM9.07442 15.3794H4.47418C4.54471 13.9853 4.86974 12.6158 5.43321 11.3387H9.49721C9.23971 12.6708 9.09825 14.0228 9.07442 15.3794ZM10.3292 16.6235H15.3794V20.6623H10.8335C10.5414 19.3344 10.3726 17.9824 10.3292 16.6235ZM15.3794 21.9045V27.5268C14.7841 27.4989 14.1918 27.4253 13.6078 27.3067C12.5307 25.6353 11.7042 23.8153 11.1544 21.9045H15.3794ZM16.6225 21.9045H20.9425C20.4374 23.781 19.6692 25.5766 18.6608 27.2378C18.0015 27.3949 17.3198 27.4899 16.6216 27.5268L16.6225 21.9045ZM16.6225 20.6633V16.6235H21.6863C21.664 17.9805 21.516 19.3326 21.2441 20.6623L16.6225 20.6633ZM22.9275 16.6235H27.5278C27.4569 18.0171 27.1315 19.3859 26.5678 20.6623H22.5047C22.7598 19.3464 22.9023 17.9956 22.9275 16.6235ZM25.919 10.0975H22.1314C21.6749 8.40273 21.0156 6.76927 20.1678 5.23248C22.5726 6.16928 24.5964 7.88122 25.919 10.0975ZM11.5985 5.31782C10.808 6.83403 10.1975 8.43748 9.77939 10.0955H6.08291C7.36067 7.95195 9.29463 6.27674 11.5985 5.31782ZM6.08291 21.9035H9.87152C10.3275 23.5983 10.9865 25.2317 11.8342 26.7685C9.42932 25.8317 7.4055 24.1197 6.08291 21.9035ZM20.4034 26.6822C21.1936 25.1659 21.8038 23.5625 22.2216 21.9045H25.919C24.6411 24.0479 22.7072 25.7231 20.4034 26.6822Z" fill="var(--fill-0, #21210A)" stroke="var(--stroke-0, #21210A)" stroke-width="0.484848"/>
</g>
</svg>
