<svg preserveAspectRatio="none" width="100%" height="100%" overflow="visible" style="display: block;" viewBox="0 0 532 339.889" fill="none" xmlns="http://www.w3.org/2000/svg">
<g id="Connector 1">
<path id="Vector" d="M214.278 118.221C277.084 118.221 277.084 66.4992 339.889 66.4992" stroke="var(--stroke-0, #F08C5C)" stroke-width="1.03444" stroke-dasharray="2.22 2.22"/>
<path id="Vector_2" d="M214.278 120.439C215.502 120.439 216.495 119.446 216.495 118.222C216.495 116.998 215.502 116.006 214.278 116.006C213.054 116.006 212.061 116.998 212.061 118.222C212.061 119.446 213.054 120.439 214.278 120.439Z" fill="var(--fill-0, #F08C5C)"/>
<path id="Vector_3" d="M339.889 68.7173C341.113 68.7173 342.106 67.7249 342.106 66.5007C342.106 65.2764 341.113 64.284 339.889 64.284C338.665 64.284 337.672 65.2764 337.672 66.5007C337.672 67.7249 338.665 68.7173 339.889 68.7173Z" fill="var(--fill-0, #F08C5C)"/>
</g>
</svg>
