<svg preserveAspectRatio="xMidYMid meet" width="100%" height="100%" overflow="visible" style="display: block;" viewBox="0 0 32 33" fill="none" xmlns="http://www.w3.org/2000/svg">
<g id="6747c027c4b8af70f79920e5_microphone.svg">
<path id="Vector" d="M22.1389 15.7703V9.2027C22.1389 5.77704 19.3904 3 16 3C14.026 3 12.2696 3.94141 11.1466 5.40412M3 3.36486L9.86111 10.2973M9.86111 10.2973V15.7703C9.86111 19.1959 12.6096 21.973 16 21.973C17.5114 21.973 18.8952 21.4211 19.9648 20.506M9.86111 10.2973L19.9648 20.506M19.9648 20.506L29 29.6351M16 26.7162C20.4424 26.7162 24.2602 24.0145 25.9319 20.1486M16 26.7162C11.5576 26.7162 7.73981 24.0145 6.0681 20.1486M16 26.7162V30" stroke="var(--stroke-0, black)" stroke-width="2" stroke-linecap="round" stroke-linejoin="round"/>
</g>
</svg>
