<svg preserveAspectRatio="none" width="100%" height="100%" overflow="visible" style="display: block;" viewBox="0 0 141.195 46.5477" fill="none" xmlns="http://www.w3.org/2000/svg">
<g id="Frame" clip-path="url(#clip0_0_58)">
<path id="Vector" d="M12.4124 37.2387H9.30924C8.45232 37.2387 7.75765 37.9334 7.75765 38.7903V44.9967C7.75765 45.8536 8.45232 46.5483 9.30924 46.5483H12.4124C13.2693 46.5483 13.964 45.8536 13.964 44.9967V38.7903C13.964 37.9334 13.2693 37.2387 12.4124 37.2387Z" fill="var(--fill-0, #67C773)" fill-opacity="0.6"/>
<path id="Vector_2" d="M23.2743 29.4812H20.1711C19.3141 29.4812 18.6195 30.1758 18.6195 31.0328V44.9971C18.6195 45.854 19.3141 46.5487 20.1711 46.5487H23.2743C24.1312 46.5487 24.8258 45.854 24.8258 44.9971V31.0328C24.8258 30.1758 24.1312 29.4812 23.2743 29.4812Z" fill="var(--fill-0, #67C773)" fill-opacity="0.683333"/>
<path id="Vector_3" d="M34.1352 20.1707H31.0321C30.1751 20.1707 29.4805 20.8653 29.4805 21.7222V44.9961C29.4805 45.853 30.1751 46.5477 31.0321 46.5477H34.1352C34.9922 46.5477 35.6868 45.853 35.6868 44.9961V21.7222C35.6868 20.8653 34.9922 20.1707 34.1352 20.1707Z" fill="var(--fill-0, #67C773)" fill-opacity="0.783333"/>
<path id="Vector_4" d="M44.9962 31.0309H41.8931C41.0361 31.0309 40.3415 31.7256 40.3415 32.5825V44.9952C40.3415 45.8522 41.0361 46.5468 41.8931 46.5468H44.9962C45.8532 46.5468 46.5478 45.8522 46.5478 44.9952V32.5825C46.5478 31.7256 45.8532 31.0309 44.9962 31.0309Z" fill="var(--fill-0, #67C773)" fill-opacity="0.666667"/>
<path id="Vector_5" d="M55.8572 13.9623H52.7541C51.8971 13.9623 51.2025 14.657 51.2025 15.5139V44.9942C51.2025 45.8511 51.8971 46.5457 52.7541 46.5457H55.8572C56.7142 46.5457 57.4088 45.8511 57.4088 44.9942V15.5139C57.4088 14.657 56.7142 13.9623 55.8572 13.9623Z" fill="var(--fill-0, #67C773)" fill-opacity="0.85"/>
<path id="Vector_6" d="M66.719 23.2729H63.6159C62.7589 23.2729 62.0643 23.9675 62.0643 24.8244V44.9951C62.0643 45.852 62.7589 46.5467 63.6159 46.5467H66.719C67.576 46.5467 68.2706 45.852 68.2706 44.9951V24.8244C68.2706 23.9675 67.576 23.2729 66.719 23.2729Z" fill="var(--fill-0, #67C773)" fill-opacity="0.75"/>
<path id="Vector_7" d="M77.5793 10.8616H74.4761C73.6192 10.8616 72.9245 11.5563 72.9245 12.4132V44.9966C72.9245 45.8535 73.6192 46.5482 74.4761 46.5482H77.5793C78.4362 46.5482 79.1309 45.8535 79.1309 44.9966V12.4132C79.1309 11.5563 78.4362 10.8616 77.5793 10.8616Z" fill="var(--fill-0, #67C773)" fill-opacity="0.883333"/>
<path id="Vector_8" d="M88.4411 24.8241H85.3379C84.481 24.8241 83.7863 25.5187 83.7863 26.3757V44.9948C83.7863 45.8517 84.481 46.5463 85.3379 46.5463H88.4411C89.298 46.5463 89.9927 45.8517 89.9927 44.9948V26.3757C89.9927 25.5187 89.298 24.8241 88.4411 24.8241Z" fill="var(--fill-0, #67C773)" fill-opacity="0.733333"/>
<path id="Vector_9" d="M99.3021 4.65477H96.1989C95.342 4.65477 94.6473 5.34944 94.6473 6.20636V44.9961C94.6473 45.8531 95.342 46.5477 96.1989 46.5477H99.3021C100.159 46.5477 100.854 45.8531 100.854 44.9961V6.20636C100.854 5.34944 100.159 4.65477 99.3021 4.65477Z" fill="var(--fill-0, #67C773)" fill-opacity="0.95"/>
<path id="Vector_10" d="M110.163 29.4812H107.06C106.203 29.4812 105.508 30.1758 105.508 31.0328V44.9971C105.508 45.854 106.203 46.5487 107.06 46.5487H110.163C111.02 46.5487 111.715 45.854 111.715 44.9971V31.0328C111.715 30.1758 111.02 29.4812 110.163 29.4812Z" fill="var(--fill-0, #67C773)" fill-opacity="0.683333"/>
<path id="Vector_11" d="M121.024 17.0665H117.921C117.064 17.0665 116.369 17.7612 116.369 18.6181V44.9951C116.369 45.8521 117.064 46.5467 117.921 46.5467H121.024C121.881 46.5467 122.576 45.8521 122.576 44.9951V18.6181C122.576 17.7612 121.881 17.0665 121.024 17.0665Z" fill="var(--fill-0, #67C773)" fill-opacity="0.816667"/>
<path id="Vector_12" d="M131.885 7.75573H128.782C127.925 7.75573 127.23 8.45041 127.23 9.30733V44.9939C127.23 45.8508 127.925 46.5455 128.782 46.5455H131.885C132.742 46.5455 133.437 45.8508 133.437 44.9939V9.30733C133.437 8.45041 132.742 7.75573 131.885 7.75573Z" fill="var(--fill-0, #67C773)" fill-opacity="0.916667"/>
</g>
<defs>
<clipPath id="clip0_0_58">
<rect width="141.195" height="46.5477" fill="white"/>
</clipPath>
</defs>
</svg>
