<svg preserveAspectRatio="none" width="100%" height="100%" overflow="visible" style="display: block;" viewBox="0 0 532 339.889" fill="none" xmlns="http://www.w3.org/2000/svg">
<g id="Connector 3">
<path id="Vector" d="M214.278 236.444C277.084 236.444 277.084 243.833 339.889 243.833" stroke="var(--stroke-0, #FCC852)" stroke-width="1.03444" stroke-dasharray="2.22 2.22"/>
<path id="Vector_2" d="M214.278 238.66C215.502 238.66 216.495 237.668 216.495 236.444C216.495 235.22 215.502 234.227 214.278 234.227C213.054 234.227 212.061 235.22 212.061 236.444C212.061 237.668 213.054 238.66 214.278 238.66Z" fill="var(--fill-0, #FCC852)"/>
<path id="Vector_3" d="M339.889 246.049C341.113 246.049 342.106 245.057 342.106 243.832C342.106 242.608 341.113 241.616 339.889 241.616C338.665 241.616 337.672 242.608 337.672 243.832C337.672 245.057 338.665 246.049 339.889 246.049Z" fill="var(--fill-0, #FCC852)"/>
</g>
</svg>
